<svg xmlns="http://www.w3.org/2000/svg" width="256" height="256" viewBox="0 0 256 256">
  <path d="m2.41 192.4v-128.7c0-33.53 27.43-61.94 60.54-61.94l128.3-0.27c34.35 0 62.14 29.29 62.14 62.71v127.4c0 33.06-27.27 62.81-61.04 62.81h-128.7c-33.24 0-61.22-28.22-61.22-62.04zm8.68-128.8v128.8c0 28.64 23.85 52.72 51.81 52.72h5.79c-1.85-2.39-2.98-5.24-3.38-8.26l-35.24-158.7c-1.69-8.13 4.4-17.42 13.65-18.05-1.59-7.16 3.45-13.03 10.62-12.49 6.12 0.23 9.64 5.29 10.84 9.71l4.04-0.61c-0.86-7.86 4.26-12.86 10.79-12.41 5.56 0.38 8.5 4.36 9.7 8.58l4.5-0.67c-0.43-7.26 4.65-12.59 11.4-12.15 6.3 0.32 10.07 4.64 10.6 9.94l3.28-0.49c0.52-6.84 4.92-14.33 12.99-13.77 5.68 0.4 8.33 4.44 9.41 8.97l3.52-0.51c-0.7-7.36 3.98-13.08 11.01-12.7 6.07 0.32 9.06 5.22 10.32 9.88 9.71-2.86 17.34 3.62 19.17 11.43l11.73 55.17 45.28-57.58c-5.96-22.95-26.21-39.67-52.06-39.67h-127.8c-28.51 0-52.01 24.88-52.01 52.87zm181 181.6c27.87 0 52.63-24.4 52.63-52.98v-61.87l-5.95 7.55c-2.25 2.65-4.55 3.6-7.25 3.25-1.84 11.81-7.33 22.6-17.54 31.2l9.16 37.54c1.95 7.89-4.4 16.63-11.92 17.41l-101.1 17.55v0.35h81.97zm-155-169.3 32.22 151.8c2.9-3.44 5.84-5.2 9.86-5.87l134.1-22.89-4.59-23.72c-10.78 8.63-23.6 13.53-39.39 14.26l2.48 0.49c-1.5 3.08-11.64 3.87-16.72 2.77-12.28-2.11-10.88-9.86-2.8-13.19 2.99-1.17 5.98-1.66 8.72-1.66l-1.5 4.92c8.88-6.25 5.28-30.38 15.71-48.06 5-8.3 11.96-13.9 17.67-17.59l-13.55-62.78c-1.38-5.7-6.32-8.2-11.73-6.89l-0.58 8.51c1.3 2.96-0.42 7.28-4.67 9.25-5.08 1.7-9.45-2.17-9.51-6.23 0.16-4.94 4.07-5.94 7.22-5.31l0.96-5.57-18.82 2.87c0.2 3.73-0.39 7.14-1.69 9.57 1.3 3.61-1.11 7.75-5.71 9.01-5.62 0.99-7.87-4.61-6.79-8.4 1.2-3.27 3.74-3.94 7.02-3.59l0.43-6.19-18.13 2.92c0.23 3.55-0.52 7.22-1.6 9.65 1.37 3.15-0.92 7.8-5.63 9.44-5.84 1.37-7.93-4.67-6.56-8.32 1.27-3.22 3.96-3.89 6.51-3.54l0.95-5.57-18.64 3.04c0.43 3.35-0.56 7.25-1.94 10.15 1.44 3.32-1.17 7.36-5.71 8.15-5.56 0.67-8.11-5.05-6.91-8.2 1.34-3.45 4.04-4.05 7.13-3.89l0.95-5.24-19.63 3.26c0.29 3.27-0.46 6.42-1.66 9.13 1.91 3.02-0.29 7.74-4.79 9.22-5.56 1.21-9.03-4.39-8.1-7.88 1.08-3.93 4.07-4.53 7.35-4.3l0.95-4.18-15.7 1.76c-4.5 0.55-7.9 5.2-7.14 8.88zm130.5-28.7v0.06h0.05l-0.05-0.06zm-8.83-4.4c-0.86-3.09-2.06-4.73-3.7-4.61-2.77 0.18-3.63 2.5-3.63 5.82l7.33-1.21zm-24.6 3.99c-1.14-3.75-2.09-5.39-4.34-5.16-2.93 0.29-3.63 2.88-3.49 6.15l7.83-0.99zm-24.82 2.99c-1.14-3.27-2.34-4.43-3.98-4.14-2.77 0.5-3.63 2.55-3.63 5.57l7.61-1.43zm-25.44 4.31c-1.14-3.27-2.34-4.43-3.98-4.14-2.93 0.49-4.13 2.66-4.13 5.87l8.11-1.73zm-25.71 3.8c-1.14-3.27-2.34-4.69-3.98-4.46-2.93 0.38-4.01 2.49-4.01 5.89l7.99-1.43zm147.6 49.58c-2.74 3.55-4.04 6.57-1.45 10.67 5.85 7.67 14.3 14.65 23.77 16.76 2.7 0 4.89-2.59 7.44-5.67-11.51-6.84-21.81-14.59-27.37-22.64l-2.39 0.88zm40.2-51.35-36.14 46.43c6.12 8.44 15.91 17.64 29.59 23.14l7.02-8.58 0.08-54.94c0-2.17-0.2-4.18-0.55-6.05zm-48.12 64.58c-12.99 8.3-17.76 16.59-23.03 30.53 4.02-3.55 8.38-3.49 11.85-1.12 3.28 2.59 2.95 7.18 2.15 11.18-0.59 4.1 1.05 6.9 6.13 6.23 4.6-1.23 6.89-0.38 7.32 2.58l-0.21 2.43c11.58-8.74 19.56-19.7 21.3-32.19-9.66-3.79-18.39-11.54-25.51-19.64zm-125.8 116.6c0 5.56 5.42 7.06 8.89 6.27l130.2-22.89c3.86-0.9 4.51-3.39 4.89-5.82l-133.1 24.02c-4.36 0.63-5.16-5.21-1.36-6.11l133.6-24.08-0.43-4.42-135.1 24.19c-4.67 0.9-7.53 3.86-7.53 8.84z" fill="#000"/>
  <path d="m82.21 93.34 10.7-1.83 16.82 22.21-9.02 2.11-7.2-10.03 7.91 39.01-8.24 1.37-10.97-52.84z" fill="#000"/>
  <path d="m140.8 83.94 10.01 51.81-7.68 1.69-8.52-38.36-2.7 10.84-9.01 2.01 7.4-26.12 10.5-1.87z" fill="#000"/>
  <path d="m100 127.9 9.72-9.85 2.04 1.64-2.55 3.93 19.49-3.4-4.5-3.02 1.27-1.7 12.28 6.1-8.85 10.03-3.8-2.43 3.8-4.2-19.34 3.45 5.08 2.69-2.04 3.87-12.6-7.11z" fill="#000"/>
  <path d="m79.01 170.1c-0.38-2.65 1.06-3.28 2.2-3.34l75.41-12.94c4.31-0.84 4.31 5.82 0.6 6.37l-76.01 13.18c-1.44 0.29-2.13-1.54-2.2-3.27z" fill="#000"/>
  <path d="m82.64 194.8c-0.21-2.65 1.29-3.55 2.49-3.67l47.25-7.22c4.66-0.6 4.99 5.44 1.33 6.05l-47.08 8.05c-2.42 0.43-3.79-0.8-3.99-3.21z" fill="#000"/>
  <path d="m195.2 157.1c1.14-4.15 3.56-5.37 6.39-5.08 4.63 0.55 5.21 5.2 3.63 7.91-2.25 3.98-5.39 4.04-7.35 3.19-2.87-1.27-3.3-3.59-2.67-6.02z" fill="#000"/>
</svg>